<?xml version="1.0" encoding="UTF-8"?>
<!DOCTYPE svg PUBLIC "-//W3C//DTD SVG 1.1//EN" "http://www.w3.org/Graphics/SVG/1.1/DTD/svg11.dtd">
<svg xmlns="http://www.w3.org/2000/svg" version="1.1" width="512px" height="512px" style="shape-rendering:geometricPrecision; text-rendering:geometricPrecision; image-rendering:optimizeQuality; fill-rule:evenodd; clip-rule:evenodd" xmlns:xlink="http://www.w3.org/1999/xlink">
<g><path style="opacity:0.988" fill="#ffffff" d="M 232.5,-0.5 C 247.833,-0.5 263.167,-0.5 278.5,-0.5C 378.271,12.4486 449.438,64.4486 492,155.5C 502.136,180.379 508.636,206.046 511.5,232.5C 511.5,247.833 511.5,263.167 511.5,278.5C 498.551,378.271 446.551,449.438 355.5,492C 330.622,502.136 304.955,508.636 278.5,511.5C 263.167,511.5 247.833,511.5 232.5,511.5C 132.727,498.549 61.5605,446.549 19,355.5C 8.86392,330.621 2.36392,304.954 -0.5,278.5C -0.5,263.167 -0.5,247.833 -0.5,232.5C 12.4486,132.729 64.4486,61.5622 155.5,19C 180.379,8.86392 206.046,2.36392 232.5,-0.5 Z M 118.5,139.5 C 209.834,139.333 301.167,139.5 392.5,140C 406.008,142.505 414.841,150.338 419,163.5C 419.667,224.5 419.667,285.5 419,346.5C 415.28,360.221 406.447,368.388 392.5,371C 301.167,371.667 209.833,371.667 118.5,371C 104.992,368.495 96.1589,360.662 92,347.5C 91.3333,286.167 91.3333,224.833 92,163.5C 96.3318,150.326 105.165,142.326 118.5,139.5 Z"/></g>
<g><path style="opacity:0.98" fill="#ffffff" d="M 142.5,166.5 C 217.666,165.334 292.999,165.168 368.5,166C 331.197,196.315 293.531,226.148 255.5,255.5C 217.621,226.066 179.955,196.399 142.5,166.5 Z"/></g>
<g><path style="opacity:0.986" fill="#ffffff" d="M 116.5,178.5 C 160.56,212.381 204.227,246.881 247.5,282C 252.833,285.333 258.167,285.333 263.5,282C 306.689,247.31 350.023,212.81 393.5,178.5C 394.667,233.164 394.833,287.83 394,342.5C 393.167,343.333 392.333,344.167 391.5,345C 300.833,345.667 210.167,345.667 119.5,345C 118.667,344.167 117.833,343.333 117,342.5C 116.5,287.834 116.333,233.168 116.5,178.5 Z"/></g>
</svg>
