<?xml version="1.0" standalone="no"?>
<!DOCTYPE svg PUBLIC "-//W3C//DTD SVG 20010904//EN"
 "http://www.w3.org/TR/2001/REC-SVG-20010904/DTD/svg10.dtd">
<svg version="1.0" xmlns="http://www.w3.org/2000/svg"
 width="85.000000pt" height="85.000000pt" viewBox="0 0 85.000000 85.000000"
 preserveAspectRatio="xMidYMid meet">
<metadata>
Created by potrace 1.14, written by Peter Selinger 2001-2017
</metadata>
<g transform="translate(0.000000,85.000000) scale(0.100000,-0.100000)"
fill="#000000" stroke="none">
<path d="M143 763 c-10 -26 -34 -41 -55 -35 -37 9 -17 -26 32 -58 28 -18 49
-35 46 -37 -3 -3 -17 3 -33 14 -15 10 -40 24 -55 31 -24 10 -29 9 -43 -11 -19
-27 -19 -66 0 -93 8 -12 11 -24 8 -28 -3 -3 -1 -6 6 -6 6 0 33 -16 59 -36 194
-146 321 -246 347 -274 l30 -33 -45 28 c-25 15 -83 57 -130 94 -193 149 -252
191 -265 191 -30 0 0 -33 84 -91 47 -33 114 -81 148 -107 35 -26 97 -71 140
-101 l77 -53 30 17 c61 34 96 60 95 70 0 6 -74 73 -165 150 -91 77 -170 146
-176 153 -16 19 -4 14 23 -9 13 -12 44 -35 69 -52 64 -44 221 -170 244 -196
23 -25 42 -27 63 -6 14 14 14 18 -2 35 -21 23 -14 26 16 8 19 -12 25 -9 59 31
21 24 44 56 50 70 7 14 16 34 22 44 5 10 6 22 2 28 -3 6 2 16 12 23 18 14 16
25 -12 64 -15 20 -15 22 0 22 38 0 -26 103 -80 129 -16 7 -42 20 -57 27 -34
16 -63 18 -72 4 -3 -5 -14 -10 -23 -10 -23 0 -92 -65 -132 -125 -32 -47 -34
-48 -40 -24 -11 38 -36 82 -62 106 -57 53 -201 84 -215 46z m428 -100 c13 -15
12 -15 -8 -4 -24 12 -29 21 -14 21 5 0 15 -7 22 -17z m-335 -197 c188 -141
235 -184 190 -174 -15 3 -163 119 -236 185 -51 47 -22 40 46 -11z m382 -123
c30 -29 -6 -10 -43 23 -39 35 -39 35 -5 13 19 -13 41 -29 48 -36z"/>
<path d="M260 282 c0 -4 9 -13 20 -20 11 -7 20 -9 20 -4 0 4 -9 13 -20 20 -11
7 -20 9 -20 4z"/>
<path d="M311 243 c1 -11 88 -83 101 -83 16 0 -4 21 -57 59 -25 18 -45 29 -44
24z"/>
</g>
</svg>
