<?xml version="1.0" encoding="UTF-8"?>
<!DOCTYPE svg PUBLIC "-//W3C//DTD SVG 1.1//EN" "http://www.w3.org/Graphics/SVG/1.1/DTD/svg11.dtd">
<svg xmlns="http://www.w3.org/2000/svg" version="1.1" width="613px" height="413px" style="shape-rendering:geometricPrecision; text-rendering:geometricPrecision; image-rendering:optimizeQuality; fill-rule:evenodd; clip-rule:evenodd" xmlns:xlink="http://www.w3.org/1999/xlink">
<g><path style="opacity:1" fill="#FFAC00" d="M -0.5,-0.5 C 203.833,-0.5 408.167,-0.5 612.5,-0.5C 612.5,137.167 612.5,274.833 612.5,412.5C 408.167,412.5 203.833,412.5 -0.5,412.5C -0.5,274.833 -0.5,137.167 -0.5,-0.5 Z M 378.5,4.5 C 381.579,4.80417 384.413,5.80417 387,7.5C 389.317,4.90347 392.15,4.07014 395.5,5C 402.085,10.0155 406.252,16.5155 408,24.5C 411.121,27.7801 413.621,31.4468 415.5,35.5C 414.483,39.0202 412.15,41.1868 408.5,42C 405.918,44.8921 406.084,47.7254 409,50.5C 409.064,54.9023 409.231,59.2356 409.5,63.5C 412.112,64.4545 414.779,64.4545 417.5,63.5C 420.528,63.8473 423.194,65.014 425.5,67C 429.833,67.3333 434.167,67.6667 438.5,68C 440.414,69.4133 441.747,71.2466 442.5,73.5C 443.736,74.3567 445.069,75.0234 446.5,75.5C 447.321,78.4465 447.821,81.4465 448,84.5C 449.94,86.0454 451.106,88.0454 451.5,90.5C 450.319,92.8632 450.319,95.1966 451.5,97.5C 450.735,99.2951 450.068,101.128 449.5,103C 452.392,105.954 455.059,109.12 457.5,112.5C 465.69,107.867 473.023,108.867 479.5,115.5C 480.554,115.32 481.554,114.987 482.5,114.5C 486.776,117.963 491.443,118.463 496.5,116C 500.5,114 504.5,112 508.5,110C 512.909,108.738 516.743,109.572 520,112.5C 522.06,117.62 524.393,122.62 527,127.5C 530.252,131.079 534.252,133.412 539,134.5C 541.821,133.013 543.987,130.846 545.5,128C 546.833,127.333 548.167,127.333 549.5,128C 555.016,130.589 560.016,133.922 564.5,138C 570.146,139.065 575.813,140.065 581.5,141C 584.463,142.961 587.129,145.294 589.5,148C 595.307,147.959 600.807,149.125 606,151.5C 606.562,153.866 606.396,156.199 605.5,158.5C 608.527,164.316 609.027,170.316 607,176.5C 601.571,184.106 596.737,192.106 592.5,200.5C 595.661,202.828 598.495,205.495 601,208.5C 601.684,211.38 601.517,214.213 600.5,217C 606.83,237.844 599.163,246.344 577.5,242.5C 573.384,242.403 569.384,242.903 565.5,244C 563.294,247.268 561.461,250.768 560,254.5C 555.799,257.349 551.466,260.016 547,262.5C 546.5,263.5 546,264.5 545.5,265.5C 547.476,268.348 547.809,271.348 546.5,274.5C 544.393,276.53 542.393,278.697 540.5,281C 530.195,279.601 521.195,282.268 513.5,289C 508.277,289.112 503.944,291.112 500.5,295C 497.464,295.638 494.464,295.472 491.5,294.5C 487.212,295.643 483.545,297.81 480.5,301C 475.506,301.542 470.506,302.209 465.5,303C 461.868,305.63 458.535,308.63 455.5,312C 448.276,314.279 441.609,317.612 435.5,322C 433.552,323.439 432.219,325.272 431.5,327.5C 433.026,331.387 434.693,335.22 436.5,339C 434.957,341.33 434.457,343.83 435,346.5C 436.955,347.453 438.622,348.787 440,350.5C 442.726,355.893 446.226,360.726 450.5,365C 451.833,365.667 453.167,365.667 454.5,365C 456.5,363 458.5,361 460.5,359C 463.662,358.398 466.662,358.898 469.5,360.5C 475.585,355.19 481.751,355.19 488,360.5C 488.667,361.833 488.667,363.167 488,364.5C 485.186,367.96 483.02,371.793 481.5,376C 476.492,378.044 471.325,379.544 466,380.5C 462.767,380.3 459.933,379.133 457.5,377C 452.404,375.42 449.237,377.254 448,382.5C 444.556,385.786 440.723,388.453 436.5,390.5C 426.119,386.839 418.786,390.173 414.5,400.5C 411.025,402.808 407.692,405.308 404.5,408C 399.927,408.921 395.761,408.088 392,405.5C 388.829,406.328 386.162,405.328 384,402.5C 383.031,399.672 383.697,397.338 386,395.5C 386.114,390.243 387.281,385.243 389.5,380.5C 388.82,377.64 387.487,375.14 385.5,373C 381.484,372.814 377.484,372.814 373.5,373C 371.126,370.961 369.126,368.628 367.5,366C 363.24,363.405 358.74,362.905 354,364.5C 352.379,364.275 351.212,363.442 350.5,362C 353.474,357.001 357.808,353.667 363.5,352C 365.598,349.146 367.931,346.479 370.5,344C 375.5,342.333 380.5,340.667 385.5,339C 387.116,338.385 388.449,337.385 389.5,336C 386.78,334.058 383.78,332.558 380.5,331.5C 379.352,329.851 378.019,328.351 376.5,327C 366.812,327.412 357.145,328.079 347.5,329C 343.244,327.08 339.911,324.08 337.5,320C 333.771,320.077 330.104,319.91 326.5,319.5C 325.417,318.635 325.251,317.635 326,316.5C 327.78,315.406 329.614,314.406 331.5,313.5C 327.603,312.727 324.603,310.727 322.5,307.5C 322.977,306.522 323.643,305.689 324.5,305C 331.195,305.172 337.862,305.005 344.5,304.5C 340.346,303.836 336.346,302.669 332.5,301C 321.934,302.815 311.267,304.315 300.5,305.5C 298.653,308.202 297.487,311.202 297,314.5C 290.283,318.973 287.283,325.307 288,333.5C 287.167,334.333 286.333,335.167 285.5,336C 281.2,337.459 276.867,338.793 272.5,340C 270.627,343.207 268.127,345.707 265,347.5C 262.102,346.437 259.602,344.77 257.5,342.5C 255.079,345.642 254.912,348.975 257,352.5C 261.449,356.704 262.949,361.704 261.5,367.5C 259.579,368.641 257.579,368.808 255.5,368C 253.167,365.667 250.833,363.333 248.5,361C 246.634,360.015 244.634,359.515 242.5,359.5C 234.206,361.657 225.872,363.657 217.5,365.5C 215.111,364.82 212.778,363.986 210.5,363C 208.813,361.087 208.313,358.92 209,356.5C 211.846,354.743 214.512,352.743 217,350.5C 219.266,346.034 220.933,341.368 222,336.5C 227.945,333.062 231.779,328.062 233.5,321.5C 231.537,313.426 234.37,307.759 242,304.5C 244.619,305.465 246.619,307.132 248,309.5C 254.484,306.867 260.484,307.867 266,312.5C 267.299,311.91 268.132,310.91 268.5,309.5C 266.413,303.618 264.58,297.618 263,291.5C 262.68,288.46 262.68,285.46 263,282.5C 260.502,280.583 257.835,278.916 255,277.5C 253.95,273.696 253.116,269.863 252.5,266C 248.406,263.983 244.072,262.817 239.5,262.5C 239.397,259.781 239.731,257.115 240.5,254.5C 239.833,252.833 239.167,251.167 238.5,249.5C 239.167,247.5 239.833,245.5 240.5,243.5C 237.736,240.556 235.069,237.39 232.5,234C 225.612,233.666 220.612,230.499 217.5,224.5C 211.503,224.17 205.837,222.67 200.5,220C 199.743,218.488 198.743,217.154 197.5,216C 193.833,215.667 190.167,215.333 186.5,215C 183.119,212.755 179.452,212.088 175.5,213C 169.203,218.39 161.87,221.057 153.5,221C 151.595,222.815 149.928,224.815 148.5,227C 144.106,227.303 139.773,227.97 135.5,229C 132.86,231.64 130.194,234.306 127.5,237C 121.871,238.145 116.205,239.145 110.5,240C 107.547,242.793 104.213,244.96 100.5,246.5C 97.8929,245.863 95.5596,244.696 93.5,243C 87.5379,243.837 82.8713,241.837 79.5,237C 74.4967,236.777 69.6634,237.61 65,239.5C 61.1915,238.513 57.6915,236.846 54.5,234.5C 51.562,235.575 48.562,235.741 45.5,235C 43.4781,232.816 41.1447,230.983 38.5,229.5C 36.2395,231.177 34.5729,233.343 33.5,236C 31.8333,236.667 30.1667,236.667 28.5,236C 27.2229,232.718 25.7229,229.551 24,226.5C 17.7079,221.877 11.7079,216.877 6,211.5C 5.36229,210.391 4.86229,209.225 4.5,208C 6.31716,204.843 8.15049,201.677 10,198.5C 10.9234,191.153 14.09,184.986 19.5,180C 22.146,179.503 24.8127,179.336 27.5,179.5C 22.7027,159.964 27.8694,143.63 43,130.5C 45.3333,126.167 47.6667,121.833 50,117.5C 55.1544,113.257 60.4878,109.257 66,105.5C 65.5647,98.8161 65.7313,92.1494 66.5,85.5C 65.3569,81.2115 63.1902,77.5449 60,74.5C 62.5199,66.406 60.5199,59.7393 54,54.5C 51.0428,48.7786 52.7094,45.1119 59,43.5C 61.3333,44.5 63.6667,45.5 66,46.5C 70.8887,43.9411 73.8887,39.9411 75,34.5C 76.214,32.9512 77.714,31.7845 79.5,31C 90.3433,30.6608 101.01,29.1608 111.5,26.5C 122.93,31.7093 134.93,33.876 147.5,33C 152.388,34.6945 157.222,36.5278 162,38.5C 169.136,36.1553 174.303,38.3219 177.5,45C 179.568,45.6869 181.568,45.5202 183.5,44.5C 184.795,45.0983 186.128,45.5983 187.5,46C 188.12,48.2123 189.287,50.0456 191,51.5C 193.677,48.4908 196.677,45.8242 200,43.5C 202.898,44.5631 205.398,46.2298 207.5,48.5C 210.474,46.4344 213.474,46.2677 216.5,48C 217.976,50.6432 219.976,52.8099 222.5,54.5C 226.637,52.8633 229.637,50.03 231.5,46C 236.024,44.0017 240.024,44.8351 243.5,48.5C 244.67,51.2087 245.837,53.8754 247,56.5C 250.092,54.2581 253.426,53.9248 257,55.5C 260.924,54.8023 264.757,53.8023 268.5,52.5C 274.954,54.3104 280.788,57.3104 286,61.5C 287.275,52.935 287.942,44.2684 288,35.5C 292.167,30.6667 296.333,25.8333 300.5,21C 304.233,19.1951 308.067,19.0284 312,20.5C 315.967,19.3732 319.967,18.3732 324,17.5C 325.5,18 327,18.5 328.5,19C 329.313,20.803 330.48,22.303 332,23.5C 335.38,20.8029 339.214,18.9695 343.5,18C 345.69,14.4241 347.69,10.7574 349.5,7C 352.167,6.33333 354.833,6.33333 357.5,7C 365.161,10.8337 372.161,10.0004 378.5,4.5 Z"/></g>
</svg>
