<svg width="94" height="50" viewBox="0 0 94 50" fill="none" xmlns="http://www.w3.org/2000/svg">
    <g clip-path="url(#clip0_1676_457)">
        <path d="M47.628 21.1418V27.8922H50.3717V31.0178H47.628V37.9108H50.9285V41.0342H43.9043V18.0117H47.628V18.0162H50.9285V21.1418H47.628Z" fill="#F2F2F2"></path>
        <path d="M61.1325 25.577V22.7587C61.1325 20.8495 60.4978 19.417 59.2283 18.6506C58.6703 18.3235 58.048 18.1213 57.4044 18.058C57.1448 18.0287 56.8838 18.0146 56.6227 18.0157H52.418V41.0359H55.8476V31.8639H56.6338C57.2529 31.8639 57.4155 32.3318 57.4155 32.8665V41.0359H61.1436V33.3744C61.1436 31.63 60.6091 30.2777 59.5424 29.4779C60.598 28.667 61.1325 27.3214 61.1325 25.577ZM55.8365 21.255H56.6227C57.2418 21.255 57.4044 21.7273 57.4044 22.2575V26.0671C57.4044 26.604 57.2418 27.0696 56.6227 27.0696H55.8365V21.255Z" fill="#F2F2F2"></path>
        <path d="M69.9914 18.6237C69.1932 18.1901 68.2934 17.9786 67.3858 18.0111H63.1699V41.0336H67.3858C68.2935 41.0643 69.1931 40.852 69.9914 40.4187C71.2609 39.6857 71.8978 38.3067 71.8978 36.4643V22.5737C71.8978 20.7379 71.2609 19.3589 69.9914 18.6237ZM68.1675 36.9655C68.1675 37.0257 68.1675 37.0836 68.1675 37.1393C68.1318 37.5849 67.9447 37.9302 67.3924 37.9302H66.6063V21.13H67.3924C68.0116 21.13 68.1741 21.5756 68.1741 22.0947L68.1675 36.9655Z" fill="#F2F2F2"></path>
        <path d="M73.9316 36.4655V22.5749C73.9316 19.7455 75.4349 18.0078 78.4414 18.0078C81.448 18.0078 82.9513 19.7455 82.9513 22.5749V36.4655C82.9513 39.2948 81.448 41.0325 78.4414 41.0325C75.4349 41.0325 73.9316 39.2948 73.9316 36.4655ZM79.2254 36.9489V22.0937C79.2254 21.579 79.0628 21.129 78.4414 21.129C77.8201 21.129 77.6575 21.5746 77.6575 22.0937V36.9489C77.6575 37.4635 77.8201 37.9136 78.4414 37.9136C79.0628 37.9136 79.2254 37.4635 79.2254 36.9489Z" fill="#F2F2F2"></path>
        <path d="M32.2782 7.82749C32.2493 8.56936 32.1914 9.30901 32.109 10.0553C32.0511 10.614 31.9574 11.1684 31.8284 11.7151C31.5233 12.956 30.9865 14.1211 29.9532 14.8675C29.423 15.239 28.8229 15.499 28.1893 15.6316C26.058 16.1351 23.5014 15.7074 21.7309 17.0173C20.3946 18.0043 19.898 19.7219 19.6686 21.3349C19.2232 24.387 19.4459 27.4904 19.1252 30.5559C18.8045 33.6214 17.8112 36.7938 15.4617 38.8524C11.3305 42.4793 4.1838 41.5258 1.54918 36.678C0.21294 34.2274 -0.00976562 31.3758 -0.00976562 28.6132C-0.00578985 26.2143 0.160133 23.8184 0.48687 21.4418C0.709577 19.8244 1.09709 18.0555 2.43555 17.0708C4.43991 15.5982 7.44868 16.6453 9.71806 15.5982C11.1634 14.9298 12.0988 13.4951 12.5286 11.9958C12.5576 11.8911 12.5887 11.7864 12.6155 11.675C12.6422 11.5636 12.6622 11.4656 12.6845 11.3542C12.7068 11.2428 12.7268 11.1314 12.7491 11.0334C12.7714 10.9353 12.7847 10.8106 12.8003 10.7081C12.8159 10.6056 12.8315 10.4853 12.8449 10.3806C12.8582 10.2759 12.8671 10.1578 12.8783 10.0553C12.8894 9.95285 12.9005 9.83255 12.905 9.72561L12.9317 9.39589C12.9317 9.28227 12.9451 9.17311 12.9495 9.06172L12.9607 8.73423L12.974 8.4045C12.974 8.29088 12.974 8.18172 12.974 8.07033C12.974 7.95893 12.974 7.84755 12.974 7.74061C12.974 7.63367 12.974 7.51782 12.974 7.41089C12.974 7.35742 12.974 7.30172 12.974 7.24825C12.9754 7.19143 12.9814 7.13482 12.9918 7.07894C12.9918 7.07894 12.9918 7.06557 12.9918 7.05666C12.9918 6.78932 13.366 6.56653 13.5998 6.54426C13.8337 6.52198 14.1054 6.52866 14.3593 6.52644H16.2322H17.3769H19.3345C19.521 6.50187 19.7104 6.53697 19.8757 6.62669C19.9214 6.65471 19.964 6.68757 20.0026 6.72472C20.0401 6.76308 20.073 6.80569 20.1006 6.8517C20.1295 6.89582 20.152 6.94383 20.1675 6.99428C20.1742 7.0139 20.1794 7.03401 20.183 7.05443C20.185 7.06098 20.185 7.06794 20.183 7.07448C20.1923 7.11917 20.1968 7.16474 20.1964 7.21038C20.1964 7.28168 20.2142 7.34851 20.2142 7.41757C20.232 8.84339 20.2543 10.2959 19.8802 11.6772C19.506 13.0585 18.6865 14.3907 17.4014 15.0791C15.0563 16.3378 11.7714 15.2261 9.70024 16.877C8.62012 17.7347 8.18584 19.1315 7.91859 20.466C7.3106 23.5649 7.34623 26.7485 7.38855 29.9031C7.38855 30.7631 7.41527 31.6498 7.76269 32.4407C8.11012 33.2315 8.87623 33.9133 9.76705 33.9088C10.6579 33.9043 11.3705 33.2405 11.718 32.4852C12.0654 31.73 12.0899 30.8656 12.1032 30.0346C12.13 27.3612 12.0119 24.6878 12.268 22.0389C12.4373 20.3123 12.8582 18.4476 14.2568 17.3604C16.6398 15.5291 20.5683 16.9148 22.8644 14.9833C23.8288 14.1724 24.2675 12.9582 24.5102 11.7218C24.5704 11.4299 24.6194 11.1336 24.6572 10.8462C25.0994 7.67057 25.0702 4.44697 24.5704 1.27988C24.5459 1.13257 24.5325 0.983627 24.5303 0.83431C24.5409 0.762569 24.5573 0.691793 24.5793 0.622663C24.5903 0.533828 24.6175 0.447755 24.6594 0.368686C24.6975 0.295262 24.7488 0.229542 24.8109 0.174865C24.8709 0.11927 24.9413 0.0761151 25.018 0.0478835C25.0576 0.0316034 25.0986 0.0189247 25.1405 0.0100072C25.1962 0.0100072 25.2541 0.0100102 25.3097 -0.0078125H30.9353C31.2582 -0.0078125 31.6034 0.0879789 31.7282 0.411016C31.7578 0.488639 31.7788 0.569348 31.7905 0.651626C31.9375 1.43805 32.0132 2.23562 32.1023 3.03096C32.1914 3.82629 32.2515 4.64391 32.2805 5.45262C32.3094 6.26132 32.3116 7.03884 32.2782 7.82749Z" fill="#F2F2F2"></path>
        <path d="M39.9641 18.6299C39.1672 18.1948 38.2679 17.9824 37.3606 18.015H33.1426V41.0375H37.3606C38.2674 41.0675 39.1658 40.8561 39.9641 40.4248C41.2357 39.6896 41.8705 38.3106 41.8705 36.4704V22.5798C41.8705 20.7419 41.2357 19.3628 39.9641 18.6299ZM38.1423 36.9717C38.1423 37.0318 38.1423 37.0875 38.1423 37.1454C38.1067 37.591 37.9196 37.9341 37.3695 37.9341H36.5834V21.1362H37.3695C37.9864 21.1362 38.1513 21.5818 38.1513 22.0986L38.1423 36.9717Z" fill="#F2F2F2"></path>
        <path d="M90.2781 26.0225V22.1015C90.2781 21.5869 90.1133 21.1324 89.492 21.1324C88.8706 21.1324 88.7103 21.5779 88.7103 22.1015V36.9634C88.7103 37.478 88.8751 37.9258 89.492 37.9258C90.1089 37.9258 90.2781 37.4803 90.2781 36.9634V32.5901H89.7547V29.4712H94.0018V41.0426H89.0799C88.6572 41.0223 88.2381 40.9543 87.8306 40.8398C85.9309 40.2985 84.9844 38.7368 84.9844 36.4844V22.5827C84.9844 19.7489 86.4832 18.0156 89.4897 18.0156C92.4963 18.0156 93.9995 19.7489 93.9995 22.5827V26.0225H90.2781Z" fill="#F2F2F2"></path>
        <path d="M31.1099 18.0156V41.0337H28.2325L27.4753 37.9147L27.3217 37.2708L25.9164 31.4139L25.7605 30.77L25.3975 29.2662V41.0359H22.0235V22.5805C22.0224 22.2329 22.0485 21.8858 22.1014 21.5423C22.1192 21.442 22.137 21.3485 22.1526 21.2527C22.1838 21.1056 22.2217 20.9631 22.2662 20.8205C22.5093 19.8985 23.1074 19.1103 23.9298 18.6283C24.3035 18.413 24.7085 18.2574 25.1302 18.1671V18.1894L25.177 18.3699C25.246 18.655 25.3151 18.9446 25.3841 19.2343C25.4843 19.6486 25.5845 20.0697 25.6825 20.4841C25.756 20.7937 25.8295 21.1056 25.9052 21.422L26.0389 21.9923C26.1703 22.5315 26.2994 23.0773 26.4286 23.6209C26.5578 24.1645 26.6869 24.7058 26.8183 25.2472C26.9341 25.744 27.0544 26.2408 27.1724 26.7376C27.2192 26.9359 27.266 27.1342 27.315 27.3347C27.364 27.5352 27.413 27.7535 27.4664 27.9651C27.4865 28.0587 27.5087 28.159 27.5355 28.2548C27.5778 28.4352 27.6201 28.6135 27.6646 28.7939C27.6847 28.8942 27.7114 28.9966 27.7337 29.1014V18.0156H31.1099Z" fill="#F2F2F2"></path>
    </g>
    <defs>
        <clipPath id="clip0_1676_457">
            <rect width="94" height="50" fill="white"></rect>
        </clipPath>
    </defs>
</svg>