<?xml version="1.0" encoding="UTF-8"?>
<!DOCTYPE svg PUBLIC "-//W3C//DTD SVG 1.1//EN" "http://www.w3.org/Graphics/SVG/1.1/DTD/svg11.dtd">
<svg xmlns="http://www.w3.org/2000/svg" version="1.1" width="512px" height="512px" style="shape-rendering:geometricPrecision; text-rendering:geometricPrecision; image-rendering:optimizeQuality; fill-rule:evenodd; clip-rule:evenodd" xmlns:xlink="http://www.w3.org/1999/xlink">
<g><path style="opacity:0.991" fill="#ffffff" d="M 232.5,-0.5 C 247.833,-0.5 263.167,-0.5 278.5,-0.5C 368.144,10.3879 435.644,54.7213 481,132.5C 497.695,163.971 507.861,197.304 511.5,232.5C 511.5,247.833 511.5,263.167 511.5,278.5C 500.612,368.144 456.279,435.644 378.5,481C 347.029,497.695 313.696,507.861 278.5,511.5C 263.167,511.5 247.833,511.5 232.5,511.5C 142.856,500.612 75.3562,456.279 30,378.5C 13.3053,347.029 3.1386,313.696 -0.5,278.5C -0.5,263.167 -0.5,247.833 -0.5,232.5C 11.9064,135.82 61.573,65.6535 148.5,22C 175.448,10.0983 203.448,2.59834 232.5,-0.5 Z M 364.5,154.5 C 377.495,153.442 382.995,159.442 381,172.5C 367.128,238.861 353.128,305.195 339,371.5C 335.766,386.703 327.599,390.203 314.5,382C 293.936,366.432 273.103,351.265 252,336.5C 240.512,347.321 229.012,358.154 217.5,369C 214.497,370.996 211.497,371.829 208.5,371.5C 210.19,350.17 212.024,328.837 214,307.5C 253.966,271.869 293.632,235.869 333,199.5C 333.803,196.775 332.803,195.109 330,194.5C 327.005,195.276 324.172,196.443 321.5,198C 273.167,228.5 224.833,259 176.5,289.5C 154.869,282.568 133.203,275.734 111.5,269C 103.159,264.969 102.492,259.969 109.5,254C 194.56,220.708 279.56,187.541 364.5,154.5 Z"/></g>
</svg>
