<?xml version="1.0" encoding="UTF-8"?>
<!DOCTYPE svg PUBLIC "-//W3C//DTD SVG 1.1//EN" "http://www.w3.org/Graphics/SVG/1.1/DTD/svg11.dtd">
<svg xmlns="http://www.w3.org/2000/svg" version="1.1" width="512px" height="512px" style="shape-rendering:geometricPrecision; text-rendering:geometricPrecision; image-rendering:optimizeQuality; fill-rule:evenodd; clip-rule:evenodd" xmlns:xlink="http://www.w3.org/1999/xlink">
<g><path style="opacity:0.991" fill="#ffffff" d="M 232.5,-0.5 C 247.833,-0.5 263.167,-0.5 278.5,-0.5C 368.144,10.3879 435.644,54.7213 481,132.5C 497.695,163.971 507.861,197.304 511.5,232.5C 511.5,247.833 511.5,263.167 511.5,278.5C 500.612,368.144 456.279,435.644 378.5,481C 347.029,497.695 313.696,507.861 278.5,511.5C 263.167,511.5 247.833,511.5 232.5,511.5C 142.856,500.612 75.3562,456.279 30,378.5C 13.3053,347.029 3.1386,313.696 -0.5,278.5C -0.5,263.167 -0.5,247.833 -0.5,232.5C 10.3875,142.857 54.7208,75.3573 132.5,30C 163.971,13.3053 197.304,3.1386 232.5,-0.5 Z M 262.5,109.5 C 278.167,109.5 293.833,109.5 309.5,109.5C 311.227,142.035 326.893,164.869 356.5,178C 365.192,181.372 374.192,182.872 383.5,182.5C 383.5,198.167 383.5,213.833 383.5,229.5C 356.439,228.925 332.105,220.591 310.5,204.5C 309.96,245.858 309.127,287.191 308,328.5C 298.61,365.557 275.443,389.057 238.5,399C 190.21,406.274 155.377,388.108 134,344.5C 119.179,297.291 132.345,260.125 173.5,233C 191.53,222.968 210.696,219.468 231,222.5C 231.667,238.167 231.667,253.833 231,269.5C 206.932,264.368 189.266,272.701 178,294.5C 170.382,320.427 178.549,339.594 202.5,352C 228.948,359.529 248.115,351.029 260,326.5C 260.667,323.833 261.333,321.167 262,318.5C 262.5,248.834 262.667,179.167 262.5,109.5 Z"/></g>
</svg>
